<svg width="32" height="32" viewBox="0 0 32 32" fill="none" xmlns="http://www.w3.org/2000/svg">
<path d="M2.66667 9.33341V2.66675H9.33334V5.33341H5.33334V9.33341H2.66667ZM2.66667 29.3334V22.6667H5.33334V26.6667H9.33334V29.3334H2.66667ZM22.6667 29.3334V26.6667H26.6667V22.6667H29.3333V29.3334H22.6667ZM26.6667 9.33341V5.33341H22.6667V2.66675H29.3333V9.33341H26.6667ZM23.3333 23.3334H25.3333V25.3334H23.3333V23.3334ZM23.3333 19.3334H25.3333V21.3334H23.3333V19.3334ZM21.3333 21.3334H23.3333V23.3334H21.3333V21.3334ZM19.3333 23.3334H21.3333V25.3334H19.3333V23.3334ZM17.3333 21.3334H19.3333V23.3334H17.3333V21.3334ZM21.3333 17.3334H23.3333V19.3334H21.3333V17.3334ZM19.3333 19.3334H21.3333V21.3334H19.3333V19.3334ZM17.3333 17.3334H19.3333V19.3334H17.3333V17.3334ZM25.3333 6.66675V14.6667H17.3333V6.66675H25.3333ZM14.6667 17.3334V25.3334H6.66667V17.3334H14.6667ZM14.6667 6.66675V14.6667H6.66667V6.66675H14.6667ZM12.6667 23.3334V19.3334H8.66667V23.3334H12.6667ZM12.6667 12.6667V8.66675H8.66667V12.6667H12.6667ZM23.3333 12.6667V8.66675H19.3333V12.6667H23.3333Z" fill="url(#paint0_linear_532_832)"/>
<defs>
<linearGradient id="paint0_linear_532_832" x1="2.66667" y1="16.0001" x2="29.3333" y2="16.0001" gradientUnits="userSpaceOnUse">
<stop stop-color="#FF5300"/>
<stop offset="0.16" stop-color="#FB5103"/>
<stop offset="0.31" stop-color="#F04C0F"/>
<stop offset="0.46" stop-color="#DE4322"/>
<stop offset="0.61" stop-color="#C5363C"/>
<stop offset="0.75" stop-color="#A4265F"/>
<stop offset="0.9" stop-color="#7C1389"/>
<stop offset="1" stop-color="#5B03AD"/>
</linearGradient>
</defs>
</svg>
